<?xml version="1.0" standalone="no"?>
<!DOCTYPE svg PUBLIC "-//W3C//DTD SVG 20010904//EN"
 "http://www.w3.org/TR/2001/REC-SVG-20010904/DTD/svg10.dtd">
<svg version="1.0" xmlns="http://www.w3.org/2000/svg"
 width="auto" height="30px" viewBox="0 0 5000.000000 1042.000000"
 preserveAspectRatio="xMidYMid meet">
 <symbol id="timhorton-logo" viewBox="0 0 5000 1042">
<metadata>
Created by potrace 1.16, written by Peter Selinger 2001-2019
</metadata>
<g transform="translate(0.000000,1042.000000) scale(0.100000,-0.100000)"
fill="currentColor" stroke="none">
<path d="M21285 10400 c-77 -39 -90 -59 -194 -296 -55 -126 -158 -362 -229
-524 -71 -162 -358 -815 -637 -1450 -279 -635 -537 -1225 -575 -1310 -38 -85
-118 -267 -178 -405 -60 -137 -167 -380 -237 -540 -70 -159 -152 -346 -182
-415 -70 -161 -93 -194 -157 -225 -67 -32 -158 -44 -341 -45 -248 -1 -365 -33
-459 -124 l-49 -48 6 -64 c10 -135 84 -202 258 -235 211 -39 264 -51 300 -66
l37 -14 -18 -42 c-10 -23 -92 -211 -183 -417 -886 -2011 -1124 -2556 -1145
-2620 -37 -110 -36 -254 2 -364 69 -203 197 -350 586 -673 113 -94 221 -187
239 -207 33 -34 38 -36 101 -36 l67 0 903 1988 c497 1093 906 1990 910 1995 9
11 280 -173 398 -270 138 -115 350 -336 454 -473 280 -370 480 -819 564 -1265
15 -78 39 -169 54 -205 59 -135 65 -170 64 -365 -1 -157 -6 -209 -38 -410 -47
-291 -58 -510 -31 -631 44 -204 154 -334 370 -441 l90 -45 90 5 c103 6 175 29
240 79 l43 33 92 280 c376 1144 810 2195 1742 4215 l103 225 899 3 898 2 -113
-97 c-862 -742 -1338 -1360 -1547 -2003 -53 -161 -78 -670 -48 -952 61 -581
250 -971 631 -1304 210 -184 343 -254 587 -308 145 -32 274 -45 528 -53 171
-5 219 -3 290 11 729 147 1395 672 1877 1481 304 509 513 1095 582 1635 l17
134 148 84 c361 202 677 436 1281 948 356 302 486 409 493 407 3 -1 11 -21 17
-45 7 -24 31 -83 55 -133 68 -144 69 -139 -46 -307 -207 -303 -564 -839 -641
-963 -444 -717 -675 -1292 -733 -1820 -12 -107 -15 -425 -5 -503 30 -245 49
-294 157 -408 127 -134 275 -212 636 -335 l207 -71 115 7 c168 9 280 23 415
50 643 130 1211 525 1702 1183 l63 85 0 -125 c0 -170 17 -363 41 -478 83 -383
306 -593 757 -713 114 -30 123 -31 347 -31 245 -1 288 4 485 60 249 71 559
224 850 418 119 79 332 239 495 371 83 66 155 124 162 128 17 11 45 -59 99
-246 99 -347 140 -431 293 -608 131 -151 249 -245 416 -328 231 -114 420 -160
703 -168 220 -7 321 4 481 49 780 219 1483 824 2000 1723 189 328 333 655 478
1084 l28 85 195 81 c447 187 882 405 1324 664 76 45 140 80 142 78 2 -1 -14
-32 -35 -67 -113 -192 -404 -712 -533 -954 -119 -222 -438 -876 -518 -1061
-87 -201 -220 -532 -220 -547 0 -15 336 -412 406 -479 171 -162 320 -238 504
-254 l65 -5 74 87 c322 382 939 1038 1731 1838 223 225 477 482 566 572 l161
163 116 0 117 0 -43 -67 c-184 -289 -325 -614 -406 -938 -63 -250 -87 -461
-78 -695 11 -290 65 -493 218 -829 93 -203 267 -342 571 -455 112 -42 167 -45
338 -21 262 37 481 129 664 276 145 116 567 689 1168 1587 519 775 808 1179
1134 1587 148 185 395 478 413 489 5 3 -15 -67 -44 -157 -101 -306 -156 -556
-175 -792 -5 -71 -17 -164 -25 -205 -19 -98 -19 -236 0 -344 30 -170 94 -334
262 -671 139 -277 192 -444 200 -623 17 -369 -158 -663 -423 -711 -98 -18
-227 16 -363 96 -192 112 -329 408 -363 781 l-11 132 -30 -27 c-92 -87 -220
-269 -294 -418 -51 -101 -130 -294 -153 -372 -12 -41 -12 -42 34 -112 109
-163 284 -264 506 -290 41 -5 121 -25 177 -44 264 -92 569 -132 823 -108 280
27 520 115 724 264 106 78 338 312 403 407 145 214 213 428 213 677 0 247 -41
429 -204 908 -169 495 -212 666 -223 891 -14 294 78 572 269 806 32 39 62 83
66 97 4 14 7 98 7 186 -1 135 -4 172 -23 240 -36 125 -69 210 -139 346 -66
129 -319 530 -339 536 -16 5 -510 -487 -698 -696 -450 -498 -893 -1064 -1403
-1791 -129 -184 -206 -296 -698 -1010 -413 -599 -593 -852 -875 -1227 l-85
-113 -115 0 c-110 0 -118 1 -161 28 -125 80 -183 210 -195 442 l-6 115 51 190
c234 856 550 1593 958 2231 95 150 96 155 64 321 -45 234 -146 434 -298 593
-80 85 -151 137 -236 174 l-57 26 -193 -171 c-154 -138 -988 -898 -1007 -919
-9 -9 -352 -322 -510 -465 -209 -189 -393 -352 -525 -465 -60 -52 -139 -119
-175 -150 -144 -124 -413 -340 -554 -445 l-38 -29 112 224 c282 563 556 1042
763 1333 l77 108 0 187 0 188 -36 35 c-19 18 -110 130 -202 248 -260 333 -385
456 -540 528 -65 30 -76 33 -90 20 -117 -99 -320 -278 -554 -489 -571 -517
-853 -730 -1198 -907 -99 -51 -272 -123 -341 -141 -22 -6 -47 -14 -55 -17 -11
-4 -14 9 -14 74 0 167 -46 425 -99 561 -71 179 -183 354 -332 517 -36 39 -97
109 -138 158 -223 266 -495 435 -806 503 -101 22 -311 29 -435 15 -297 -35
-715 -216 -1022 -443 -256 -189 -501 -436 -721 -725 -351 -459 -688 -1093
-999 -1873 -126 -317 -477 -720 -843 -968 -210 -142 -451 -254 -681 -317 -188
-52 -215 -54 -264 -20 -114 79 -173 194 -186 360 l-6 80 120 305 c445 1125
1087 2589 1902 4338 22 46 45 82 53 82 8 0 142 9 298 20 955 66 2178 100 3617
100 448 0 662 3 662 10 0 6 -7 27 -16 48 -32 74 -56 150 -100 317 -24 94 -61
212 -81 264 l-36 94 -476 -6 c-445 -6 -761 -17 -1866 -67 -721 -32 -1645 -55
-1645 -41 0 4 50 97 112 207 212 379 358 688 358 756 0 39 -53 185 -103 283
-129 256 -355 477 -608 594 -85 39 -179 74 -234 85 l-31 7 -83 -178 c-46 -98
-156 -338 -243 -533 -211 -471 -242 -537 -374 -795 -159 -313 -373 -675 -399
-675 -7 0 -251 -27 -544 -59 l-532 -60 -72 -62 c-156 -135 -201 -203 -200
-299 1 -70 21 -130 43 -130 19 0 986 106 1043 115 l37 5 0 -54 c0 -47 -9 -73
-71 -197 -120 -243 -251 -534 -619 -1379 -518 -1186 -902 -1858 -1414 -2470
-99 -119 -390 -414 -521 -529 -198 -174 -429 -351 -492 -378 -21 -8 -77 -18
-124 -21 -70 -4 -100 -1 -155 16 -153 46 -240 152 -289 347 -46 188 -10 377
135 710 69 156 135 329 153 396 27 104 178 410 349 707 95 167 158 270 395
657 263 429 459 786 578 1052 l27 62 -33 46 c-55 77 -113 104 -278 130 -54 9
-114 26 -140 40 -25 13 -64 26 -86 30 -146 24 -263 143 -388 392 l-62 125 -3
109 c-3 92 1 132 28 261 35 170 41 278 16 325 -32 62 -132 127 -159 104 -7 -6
-40 -48 -72 -93 -173 -243 -490 -654 -674 -873 -246 -293 -620 -681 -841 -871
-236 -203 -481 -378 -713 -508 -160 -89 -160 -89 -171 112 -5 92 -8 103 -59
197 -9 17 -40 80 -70 141 -239 487 -675 758 -1365 849 -320 42 -780 40 -1492
-5 -525 -33 -797 -43 -1048 -38 -134 3 -245 8 -249 11 -7 7 136 383 246 647
282 676 505 1142 1274 2649 l170 333 -110 112 c-61 61 -162 172 -225 246 -206
240 -335 351 -467 400 -95 36 -213 27 -282 -21 -33 -23 -232 -370 -461 -804
-219 -415 -582 -1161 -761 -1565 -30 -69 -81 -181 -112 -250 -76 -167 -397
-917 -589 -1375 l-155 -370 -143 -2 c-345 -5 -782 -28 -1493 -77 -225 -16
-539 -31 -833 -41 l-182 -6 17 44 c10 24 391 976 848 2115 l829 2073 -17 47
c-49 132 -182 281 -382 427 -201 147 -227 167 -305 236 -41 37 -93 76 -115 88
-53 28 -136 28 -190 1z m1583 -5602 c-69 -299 -192 -633 -499 -1353 -86 -204
-165 -391 -175 -415 -9 -25 -20 -48 -23 -52 -4 -4 -31 50 -60 120 -305 720
-674 1230 -1148 1581 -81 60 -99 77 -86 83 23 9 283 43 473 62 361 37 703 52
1216 54 l321 2 -19 -82z m4217 -908 c103 -163 307 -381 433 -464 41 -27 106
-63 145 -80 l72 -31 298 -3 c163 -2 297 -6 297 -8 0 -3 -31 -98 -69 -212 -319
-965 -822 -1570 -1491 -1793 -114 -38 -131 -41 -195 -36 -139 12 -313 77 -446
168 -165 112 -272 313 -308 583 -19 136 -25 414 -11 481 23 113 91 300 155
428 204 407 535 772 954 1051 l85 56 26 -48 c14 -26 39 -67 55 -92z m11376
-392 c45 -90 102 -194 126 -231 91 -137 210 -244 333 -297 30 -13 70 -35 88
-48 86 -62 193 -87 420 -98 124 -6 152 -10 152 -22 0 -29 -53 -250 -87 -362
-138 -457 -355 -856 -611 -1123 -201 -210 -394 -333 -616 -393 -227 -60 -501
-1 -656 142 -219 204 -301 613 -205 1029 86 369 326 779 779 1329 72 87 145
176 161 197 17 21 31 38 32 39 2 0 39 -73 84 -162z"/>
<path d="M9490 9959 c-2912 -49 -5793 -273 -8711 -675 l-277 -38 -241 -544
c-133 -300 -239 -547 -236 -550 3 -3 164 9 358 26 1232 112 1655 144 2282 177
329 17 1203 40 1211 32 3 -3 -34 -81 -82 -174 -652 -1248 -1304 -2572 -1847
-3753 -523 -1139 -1344 -3070 -1368 -3219 -12 -79 3 -158 48 -244 48 -92 182
-229 388 -394 139 -112 245 -212 325 -306 46 -54 105 -84 187 -99 107 -18 222
8 296 66 10 8 45 79 79 158 33 78 269 645 525 1258 1203 2883 1671 3968 2253
5215 100 215 192 417 205 451 71 184 23 358 -175 634 -247 345 -294 434 -324
617 l-5 31 82 6 c113 9 1444 80 2052 111 1551 77 2607 112 3706 122 l696 6 63
127 63 128 -7 153 c-13 288 -71 484 -186 628 l-46 56 -434 1 c-239 0 -635 -3
-880 -7z"/>
<path d="M6900 7964 c-157 -83 -263 -158 -348 -249 -84 -88 -113 -137 -145
-250 -83 -284 -86 -584 -11 -883 38 -149 64 -198 161 -295 180 -182 441 -265
668 -213 33 8 93 17 132 20 216 21 386 113 646 350 81 75 126 124 143 157 60
120 97 339 109 655 l7 170 -59 75 c-205 258 -541 448 -898 509 -64 11 -154 20
-198 20 -82 0 -83 -1 -207 -66z"/>
<path d="M5872 5623 c-194 -291 -377 -613 -572 -1008 -250 -507 -434 -944
-860 -2040 -62 -159 -184 -468 -271 -685 l-158 -395 57 -58 c31 -32 90 -84
131 -115 41 -31 165 -148 275 -260 307 -311 427 -397 573 -409 l68 -5 85 52
c136 85 315 206 455 309 544 398 1010 809 2085 1835 52 50 134 127 180 171 47
44 121 114 165 155 44 42 130 120 190 175 61 55 112 102 115 105 44 42 92 83
87 75 -3 -5 -50 -111 -105 -235 -215 -486 -436 -953 -749 -1583 -123 -247
-223 -451 -223 -454 0 -10 285 -284 372 -358 171 -145 325 -233 456 -261 81
-17 126 -17 208 -3 l62 11 63 81 c483 623 1240 1397 2249 2297 530 473 563
502 543 469 -197 -325 -478 -853 -893 -1680 l-279 -556 82 -59 c45 -32 159
-117 252 -189 209 -162 294 -224 410 -302 91 -61 247 -144 316 -168 l37 -13
159 162 c195 200 249 256 645 676 967 1025 1410 1411 2072 1808 6 3 -1 -12
-14 -34 -69 -114 -205 -326 -293 -459 -291 -435 -484 -784 -567 -1029 -148
-436 -111 -815 113 -1160 l55 -84 88 -30 c49 -16 141 -48 204 -70 243 -86 402
-123 587 -137 80 -6 99 -4 150 15 229 85 443 244 579 430 47 64 98 149 93 155
-2 2 -67 8 -144 14 -240 18 -358 72 -432 198 -25 43 -26 48 -19 161 9 152 40
329 83 477 108 372 275 711 623 1260 357 564 462 738 570 941 l53 102 -77 110
c-296 421 -551 633 -764 635 -133 0 6 118 -1577 -1333 -792 -725 -1440 -1318
-1442 -1317 -1 1 24 77 57 167 265 751 595 1408 936 1867 l83 112 -9 83 c-33
289 -236 560 -569 762 -88 53 -228 116 -264 119 -19 2 -55 -28 -153 -122 -71
-69 -183 -177 -249 -240 -66 -64 -224 -215 -350 -336 -223 -213 -357 -341
-630 -605 -72 -69 -234 -224 -360 -346 -127 -121 -461 -442 -743 -713 -283
-271 -516 -491 -518 -488 -11 11 316 697 476 998 224 423 691 1263 798 1439
12 19 22 42 22 52 0 25 -127 183 -226 280 -165 163 -365 297 -579 390 -178 77
-140 94 -361 -159 -204 -233 -587 -652 -1114 -1219 -490 -527 -603 -650 -941
-1029 -393 -439 -922 -931 -1275 -1186 -137 -99 -329 -216 -450 -275 -61 -30
-114 -54 -117 -54 -3 0 25 89 63 198 272 782 681 1665 1274 2743 103 189 108
200 113 270 7 100 -9 178 -56 274 -55 110 -145 211 -373 418 -167 153 -272
261 -301 313 -6 11 -35 14 -132 14 l-125 0 -78 -117z"/>
</g>
</symbol>
</svg>
